<svg width="20" height="27" viewBox="0 0 20 27" fill="none" xmlns="http://www.w3.org/2000/svg">
<path d="M17.904 5.55501V4.13666L18.9335 3.33301H7.79334L1.06641 9.18059H5.52766C5.51957 9.29127 5.51625 9.39134 5.51625 9.50484C5.51625 10.5905 5.89225 11.4885 6.645 12.2059C7.39775 12.9245 8.32475 13.2813 9.42242 13.2813C9.67884 13.2813 9.93026 13.2622 10.1744 13.228C10.023 13.5666 9.94658 13.8802 9.94658 14.1729C9.94658 14.6872 10.1809 15.237 10.648 15.8209C8.60457 15.96 7.10314 16.3278 6.14606 16.9232C5.59757 17.2617 5.15647 17.689 4.82365 18.2008C4.49081 18.7164 4.32481 19.2693 4.32481 19.8655C4.32481 20.368 4.43223 20.8205 4.64872 21.2229C4.86521 21.6253 5.14756 21.9557 5.49832 22.2117C5.84822 22.4704 6.25191 22.6857 6.70764 22.8611C7.16255 23.0352 7.61422 23.1589 8.06498 23.2289C8.51431 23.2988 8.96106 23.333 9.40383 23.333C10.1053 23.333 10.8077 23.2427 11.5157 23.0628C12.222 22.8814 12.8844 22.6128 13.5037 22.2559C14.1214 21.9015 14.6243 21.4181 15.0101 20.8123C15.395 20.2039 15.5879 19.5203 15.5879 18.7635C15.5879 18.1898 15.4708 17.6678 15.2364 17.1937C15.0036 16.7212 14.7188 16.3322 14.3794 16.0299C14.0409 15.7272 13.7024 15.4489 13.363 15.1983C13.0244 14.9459 12.738 14.6904 12.5053 14.4268C12.2717 14.1639 12.1545 13.9031 12.1545 13.6464C12.1545 13.39 12.2448 13.1426 12.4262 12.9034C12.6061 12.6633 12.8259 12.4321 13.0829 12.2104C13.3401 11.989 13.5973 11.7433 13.8536 11.4743C14.1099 11.2062 14.3297 10.8582 14.5103 10.4322C14.6918 10.0062 14.7813 9.52357 14.7813 8.9865C14.7813 8.28583 14.6487 7.7125 14.3883 7.25142C14.3573 7.19817 14.3248 7.15749 14.2906 7.09401L17.2545 4.66317V5.55476C16.8694 5.60318 16.9095 5.83319 16.9095 6.10868V12.8101C16.9095 13.1204 17.1634 13.3744 17.4738 13.3744H17.6815C17.9919 13.3744 18.2458 13.1204 18.2458 12.8101V6.10868C18.2458 5.83385 18.2863 5.60409 17.904 5.55501ZM12.3124 17.1424C12.3718 17.1815 12.5053 17.2873 12.7144 17.4569C12.9253 17.6259 13.0684 17.7536 13.1449 17.8431C13.2198 17.9298 13.3313 18.06 13.477 18.2362C13.6234 18.4119 13.7227 18.5645 13.7748 18.6911C13.8269 18.8201 13.8798 18.9755 13.9335 19.157C13.9848 19.3364 14.0108 19.5203 14.0108 19.7071C14.0108 20.595 13.669 21.2529 12.987 21.6789C12.3035 22.105 11.4888 22.3182 10.5424 22.3182C10.0639 22.3182 9.5943 22.2613 9.13287 22.1518C8.67229 22.0415 8.23121 21.8739 7.81046 21.6517C7.3897 21.4299 7.05121 21.1203 6.79479 20.7248C6.53763 20.3269 6.40904 19.8698 6.40904 19.3576C6.40904 18.8201 6.55471 18.3529 6.8477 17.9563C7.13903 17.5591 7.52154 17.2588 7.99521 17.0544C8.46721 16.8489 8.9457 16.7033 9.43071 16.617C9.91572 16.5283 10.4097 16.4839 10.9119 16.4839C11.1446 16.4839 11.3252 16.497 11.4538 16.5202C11.4775 16.5316 11.6117 16.628 11.8566 16.8099C12.1016 16.9903 12.2538 17.1014 12.3124 17.1424ZM12.1375 11.904C11.7517 12.3654 11.2138 12.5961 10.5253 12.5961C9.90761 12.5961 9.36395 12.3479 8.89687 11.8507C8.42813 11.3547 8.09362 10.7919 7.88937 10.1616C7.68429 9.53093 7.58177 8.91242 7.58177 8.30493C7.58177 7.59169 7.76903 6.98452 8.14327 6.48326C8.51761 5.98068 9.05469 5.72885 9.75462 5.72885C10.3731 5.72885 10.9199 5.99126 11.392 6.51826C11.8656 7.04351 12.205 7.63353 12.4085 8.28743C12.6127 8.94051 12.7144 9.56502 12.7144 10.1616C12.7144 10.8619 12.5215 11.4434 12.1375 11.904Z" fill="white"/>
</svg>
